<?xml version="1.0" encoding="UTF-8" standalone="no"?>
<!DOCTYPE svg PUBLIC "-//W3C//DTD SVG 1.1//EN" "http://www.w3.org/Graphics/SVG/1.1/DTD/svg11.dtd">
<svg version="1.1" xmlns="http://www.w3.org/2000/svg" xmlns:xlink="http://www.w3.org/1999/xlink" preserveAspectRatio="xMidYMid meet" viewBox="0 0 309 348" width="309" height="348"><defs><path d="M240.58 0C278.37 0 309 30.63 309 68.42C309 116.54 309 192.46 309 240.58C309 278.37 278.37 309 240.58 309C192.46 309 116.54 309 68.42 309C30.63 309 0 278.37 0 240.58C0 192.46 0 116.54 0 68.42C0 30.63 30.63 0 68.42 0C116.54 0 192.46 0 240.58 0Z" id="a6963zVP1"></path><clipPath id="clipbCR3yFiKm"><use xlink:href="#a6963zVP1" opacity="1"></use></clipPath><path d="M154.98 247.6C120.56 247.55 89.26 227.67 74.59 196.54C72.62 190.88 75.61 184.7 81.27 182.73C86.06 181.07 91.36 182.94 94.04 187.25C109.99 220.92 150.21 235.28 183.87 219.33C197.95 212.67 209.29 201.33 215.96 187.25C219.12 182.16 225.81 180.6 230.9 183.77C235.2 186.44 237.08 191.75 235.41 196.54C221.35 226.43 191.87 246.06 158.87 247.5C158.09 247.52 155.75 247.58 154.98 247.6Z" id="bc96xAZzp"></path><path d="M78.37 167.36C72.37 167.36 67.5 162.49 67.5 156.49C67.5 150.49 72.37 145.62 78.37 145.62C92.56 145.62 206.08 145.62 220.28 145.62C214.37 108.87 179.79 83.86 143.03 89.76C121.91 93.15 103.65 106.38 93.83 125.39C91.05 130.76 84.45 132.86 79.07 130.08C73.7 127.3 71.6 120.69 74.38 115.32C74.38 115.32 74.38 115.32 74.38 115.32C97.21 71.7 151.08 54.85 194.7 77.68C224.04 93.04 242.45 123.4 242.5 156.51C242.5 162.35 237.88 167.15 232.04 167.36C232.04 167.36 93.74 167.36 78.37 167.36Z" id="akkfgoAlD"></path><path d="M93.92 342.39L93.92 337.19C97.94 337.19 100.18 337.19 100.63 337.19C101.52 337.19 102.25 336.46 102.25 335.56C102.25 334.66 101.52 333.94 100.63 333.94C100.18 333.94 97.94 333.94 93.92 333.94L93.92 329.44C99.17 329.44 102.09 329.44 102.67 329.44C103.57 329.44 104.3 328.71 104.3 327.81C104.3 326.91 103.57 326.19 102.67 326.19C101.64 326.19 93.35 326.19 92.31 326.19C91.42 326.19 90.69 326.91 90.69 327.81C90.69 327.81 90.69 327.81 90.69 327.81C90.69 337.53 90.69 342.94 90.69 344.02C90.69 344.91 91.42 345.64 92.31 345.64C93.42 345.64 102.26 345.64 103.36 345.64C104.26 345.64 104.98 344.91 104.98 344.02C104.98 343.12 104.26 342.39 103.36 342.39C103.36 342.39 100.21 342.39 93.92 342.39Z" id="e2pOVHYr1s"></path><path d="M208.27 342.39L208.27 337.19C212.28 337.19 214.51 337.19 214.95 337.19C215.85 337.19 216.58 336.46 216.58 335.56C216.58 334.66 215.85 333.94 214.95 333.94C214.51 333.94 212.28 333.94 208.27 333.94L208.27 329.44C213.51 329.44 216.42 329.44 217.01 329.44C217.9 329.44 218.63 328.71 218.63 327.81C218.63 326.91 217.9 326.19 217.01 326.19C215.97 326.19 207.68 326.19 206.65 326.19C205.75 326.19 205.02 326.91 205.02 327.81C205.02 327.81 205.02 327.81 205.02 327.81C205.02 337.53 205.02 342.94 205.02 344.02C205.02 344.91 205.75 345.64 206.65 345.64C207.75 345.64 216.58 345.64 217.69 345.64C218.58 345.64 219.31 344.91 219.31 344.02C219.31 343.12 218.58 342.39 217.69 342.39C217.69 342.39 217.69 342.39 217.69 342.39C217.69 342.39 214.55 342.39 208.27 342.39Z" id="b2gQFwln4z"></path><path d="M175.9 326.28L175.93 326.28L175.96 326.28L175.98 326.29L176.01 326.29L176.04 326.3L176.07 326.3L176.1 326.31L176.13 326.31L176.15 326.32L176.18 326.32L176.32 326.32L176.41 326.35L176.46 326.35L176.55 326.4L176.61 326.44L176.68 326.48L176.75 326.53L176.81 326.58L176.93 326.68L177.04 326.8L177.08 326.86L177.13 326.93L177.17 327L177.21 327.06L177.25 327.15L177.25 327.2L182.2 338.93L184.08 343.39L184.02 343.39L184.07 343.58L184.1 343.78L184.11 343.97L184.09 344.16L184.05 344.35L183.99 344.53L183.91 344.7L183.81 344.86L183.69 345.01L183.55 345.14L183.39 345.26L183.22 345.36L183.02 345.45L182.81 345.51L182.6 345.54L182.39 345.54L182.18 345.51L181.98 345.46L181.79 345.38L181.6 345.28L181.44 345.16L181.28 345.01L181.15 344.84L181.04 344.65L179.57 341.18L171.81 341.18L170.35 344.65L170.34 344.67L170.34 344.68L170.33 344.7L170.32 344.72L170.32 344.74L170.31 344.75L170.3 344.77L170.29 344.79L170.29 344.81L170.28 344.82L170.27 344.84L170.26 344.86L170.15 345.05L170.01 345.21L169.86 345.36L169.69 345.49L169.51 345.59L169.32 345.67L169.12 345.72L168.91 345.74L168.7 345.74L168.49 345.71L168.28 345.66L168.08 345.57L167.89 345.46L167.72 345.32L167.57 345.17L167.45 345L167.35 344.82L167.27 344.63L167.22 344.43L167.19 344.22L167.19 344.01L167.22 343.8L167.28 343.59L167.36 343.39L169.27 338.9L174.34 327.17L174.34 327.12L174.38 327.03L174.41 326.97L174.46 326.9L174.55 326.77L174.66 326.65L174.71 326.6L174.78 326.55L174.84 326.5L174.91 326.45L174.98 326.41L175.05 326.37L175.13 326.33L175.38 326.33L175.41 326.32L175.44 326.32L175.47 326.31L175.5 326.3L175.53 326.3L175.57 326.29L175.6 326.29L175.63 326.28L175.66 326.28L175.69 326.28L175.72 326.28L175.75 326.28L175.84 326.28L175.87 326.28L175.9 326.28ZM178.23 337.94L175.72 331.97L173.21 337.94L178.23 337.94Z" id="a1dfqLCO1K"></path><path d="M122.96 345.64C122.47 345.65 122 345.43 121.69 345.04C121.01 344.18 117.65 339.86 111.59 332.09C111.59 339.26 111.59 343.24 111.59 344.03C111.59 344.93 110.87 345.66 109.97 345.66C109.07 345.66 108.35 344.93 108.35 344.03C108.35 342.41 108.35 329.43 108.35 327.81C108.35 326.91 109.07 326.19 109.97 326.19C110 326.19 110.28 326.19 110.31 326.19C110.81 326.18 111.28 326.4 111.59 326.78C112.26 327.65 115.65 331.99 121.74 339.8C121.74 332.61 121.74 328.61 121.74 327.81C121.74 326.91 122.47 326.19 123.36 326.19C124.26 326.19 124.99 326.91 124.99 327.81C124.99 329.43 124.99 342.4 124.99 344.02C124.99 344.91 124.27 345.63 123.37 345.64C123.37 345.64 123 345.64 122.96 345.64Z" id="bCAGSxvrt"></path><path d="M160.66 327.81C160.66 327.81 160.66 327.81 160.66 327.81L160.66 333.94L151.4 333.94C151.4 330.26 151.4 328.22 151.4 327.81C151.4 326.91 150.67 326.19 149.77 326.19C148.88 326.19 148.15 326.91 148.15 327.81C148.15 327.81 148.15 327.81 148.15 327.81C148.15 328.33 148.15 330.92 148.15 335.57L148.15 335.57C148.15 340.64 148.15 343.45 148.15 344.02C148.15 344.91 148.88 345.64 149.77 345.64C150.67 345.64 151.4 344.91 151.4 344.02C151.4 344.02 151.4 344.02 151.4 344.02C151.4 343.56 151.4 341.28 151.4 337.19L160.66 337.19C160.66 341.28 160.66 343.56 160.66 344.02C160.66 344.91 161.38 345.64 162.28 345.64C163.18 345.64 163.91 344.91 163.91 344.02C163.91 342.4 163.91 329.43 163.91 327.81C163.91 326.91 163.18 326.19 162.28 326.19C161.38 326.19 160.66 326.91 160.66 327.81Z" id="b1eUoyCfFI"></path><path d="M187.07 343.3C186.45 342.65 186.48 341.62 187.13 341C187.76 340.41 188.73 340.41 189.36 341C190.97 342.54 193.28 343.11 195.43 342.48C196.34 342.27 197.05 341.55 197.25 340.64C197.38 339.72 196.89 338.85 194.02 337.65C193.95 337.62 193.39 337.37 193.32 337.34C193.12 337.25 192.93 337.17 192.65 337.05C190.86 336.33 187.05 334.81 187.12 331.3C187.18 329.15 188.56 327.25 190.58 326.53C193.76 325.37 197.31 326.15 199.7 328.54C200.36 329.15 200.4 330.19 199.78 330.85C199.17 331.51 198.13 331.54 197.47 330.93C197.47 330.93 197.47 330.93 197.47 330.93C197.47 330.92 197.42 330.87 197.41 330.86C195.94 329.39 193.77 328.89 191.8 329.56C190.97 329.8 190.39 330.54 190.37 331.41C190.37 332.67 192.63 333.58 193.86 334.07C194.22 334.22 194.53 334.34 194.78 334.47C194.83 334.49 195.25 334.68 195.31 334.7C197.03 335.44 201.07 337.18 200.46 341.19C200.1 343.32 198.53 345.06 196.44 345.63C195.58 345.89 194.68 346.02 193.78 346C191.28 346.01 188.87 345.04 187.07 343.3Z" id="avbLp5as"></path><path d="M140.13 326.39L140.92 326.64L141.65 326.98L142.31 327.4L142.9 327.91L143.42 328.48L143.86 329.12L144.21 329.83L144.46 330.59L144.62 331.4L144.67 332.25L144.62 333.11L144.46 333.92L144.21 334.68L143.86 335.38L143.42 336.02L142.9 336.59L142.31 337.09L141.65 337.51L140.92 337.85L140.13 338.1L139.29 338.25L138.4 338.3L133.33 338.3L133.33 344L133.32 344.22L133.28 344.43L133.21 344.63L133.12 344.82L133 344.99L132.87 345.15L132.72 345.29L132.55 345.41L132.36 345.5L132.16 345.57L131.95 345.62L131.73 345.64L131.51 345.63L131.3 345.58L131.1 345.51L130.91 345.42L130.74 345.3L130.59 345.16L130.45 345.01L130.33 344.84L130.24 344.65L130.17 344.45L130.12 344.24L130.11 344.02L130.11 327.81L130.12 327.59L130.17 327.38L130.24 327.18L130.33 326.99L130.45 326.82L130.59 326.66L130.74 326.53L130.91 326.41L131.1 326.31L131.3 326.24L131.51 326.2L131.73 326.19L138.4 326.19L139.29 326.24L140.13 326.39ZM133.33 335.08L138.37 335.08L139.4 334.95L140.24 334.58L140.87 333.99L141.27 333.21L141.41 332.25L141.27 331.3L140.87 330.52L140.24 329.93L139.4 329.56L138.37 329.43L133.33 329.43L133.33 335.08Z" id="iI4dlDwDE"></path></defs><g><g><g><use xlink:href="#a6963zVP1" opacity="1" fill="#dcf0ff" fill-opacity="1"></use><g clip-path="url(#clipbCR3yFiKm)"><use xlink:href="#a6963zVP1" opacity="1" fill-opacity="0" stroke="#084775" stroke-width="20" stroke-opacity="1"></use></g></g><g><g><filter id="shadow8741128" x="19.98" y="128.13" width="278.03" height="181.47" filterUnits="userSpaceOnUse" primitiveUnits="userSpaceOnUse"><feFlood></feFlood><feComposite in2="SourceAlpha" operator="in"></feComposite><feGaussianBlur stdDeviation="4.47"></feGaussianBlur><feOffset dx="8" dy="8" result="afterOffset"></feOffset><feFlood flood-color="#000000" flood-opacity="0.4"></feFlood><feComposite in2="afterOffset" operator="in"></feComposite><feMorphology operator="dilate" radius="1"></feMorphology><feComposite in2="SourceAlpha" operator="out"></feComposite></filter><path d="M154.98 247.6C120.56 247.55 89.26 227.67 74.59 196.54C72.62 190.88 75.61 184.7 81.27 182.73C86.06 181.07 91.36 182.94 94.04 187.25C109.99 220.92 150.21 235.28 183.87 219.33C197.95 212.67 209.29 201.33 215.96 187.25C219.12 182.16 225.81 180.6 230.9 183.77C235.2 186.44 237.08 191.75 235.41 196.54C221.35 226.43 191.87 246.06 158.87 247.5C158.09 247.52 155.75 247.58 154.98 247.6Z" id="alrsPINf7" fill="white" fill-opacity="1" filter="url(#shadow8741128)"></path></g><use xlink:href="#bc96xAZzp" opacity="1" fill="#084775" fill-opacity="1"></use></g><g><g><filter id="shadow6849492" x="13.5" y="13.5" width="291" height="215.86" filterUnits="userSpaceOnUse" primitiveUnits="userSpaceOnUse"><feFlood></feFlood><feComposite in2="SourceAlpha" operator="in"></feComposite><feGaussianBlur stdDeviation="4.47"></feGaussianBlur><feOffset dx="8" dy="8" result="afterOffset"></feOffset><feFlood flood-color="#000000" flood-opacity="0.4"></feFlood><feComposite in2="afterOffset" operator="in"></feComposite><feMorphology operator="dilate" radius="1"></feMorphology><feComposite in2="SourceAlpha" operator="out"></feComposite></filter><path d="M78.37 167.36C72.37 167.36 67.5 162.49 67.5 156.49C67.5 150.49 72.37 145.62 78.37 145.62C92.56 145.62 206.08 145.62 220.28 145.62C214.37 108.87 179.79 83.86 143.03 89.76C121.91 93.15 103.65 106.38 93.83 125.39C91.05 130.76 84.45 132.86 79.07 130.08C73.7 127.3 71.6 120.69 74.38 115.32C74.38 115.32 74.38 115.32 74.38 115.32C97.21 71.7 151.08 54.85 194.7 77.68C224.04 93.04 242.45 123.4 242.5 156.51C242.5 162.35 237.88 167.15 232.04 167.36C232.04 167.36 93.74 167.36 78.37 167.36Z" id="e1aqQh9dqi" fill="white" fill-opacity="1" filter="url(#shadow6849492)"></path></g><use xlink:href="#akkfgoAlD" opacity="1" fill="#084775" fill-opacity="1"></use></g><g><use xlink:href="#e2pOVHYr1s" opacity="1" fill="#084775" fill-opacity="1"></use><g><use xlink:href="#e2pOVHYr1s" opacity="1" fill-opacity="0" stroke="#084775" stroke-width="2" stroke-opacity="1"></use></g></g><g><use xlink:href="#b2gQFwln4z" opacity="1" fill="#084775" fill-opacity="1"></use><g><use xlink:href="#b2gQFwln4z" opacity="1" fill-opacity="0" stroke="#084775" stroke-width="2" stroke-opacity="1"></use></g></g><g><use xlink:href="#a1dfqLCO1K" opacity="1" fill="#084775" fill-opacity="1"></use><g><use xlink:href="#a1dfqLCO1K" opacity="1" fill-opacity="0" stroke="#084775" stroke-width="2" stroke-opacity="1"></use></g></g><g><use xlink:href="#bCAGSxvrt" opacity="1" fill="#084775" fill-opacity="1"></use><g><use xlink:href="#bCAGSxvrt" opacity="1" fill-opacity="0" stroke="#084775" stroke-width="2" stroke-opacity="1"></use></g></g><g><use xlink:href="#b1eUoyCfFI" opacity="1" fill="#084775" fill-opacity="1"></use><g><use xlink:href="#b1eUoyCfFI" opacity="1" fill-opacity="0" stroke="#084775" stroke-width="2" stroke-opacity="1"></use></g></g><g><use xlink:href="#avbLp5as" opacity="1" fill="#084775" fill-opacity="1"></use><g><use xlink:href="#avbLp5as" opacity="1" fill-opacity="0" stroke="#084775" stroke-width="2" stroke-opacity="1"></use></g></g><g><use xlink:href="#iI4dlDwDE" opacity="1" fill="#084775" fill-opacity="1"></use><g><use xlink:href="#iI4dlDwDE" opacity="1" fill-opacity="0" stroke="#084775" stroke-width="2" stroke-opacity="1"></use></g></g></g></g></svg>